#!OML:ASF H:\Terrain\Patient Classification 1\Walking\liu\liu.ASF
:FULLY-SPECIFIED
:DEGREES
204
root 8.64326 16.758 4.4955 7.54447 -6.82033 -7.85679
lowerback -4.92295 3.74387 5.9245
upperback -0.686293 4.57924 3.77832
thorax 2.20052 2.31381 0.907386
lowerneck -20.3335 -2.95152 -13.0073
upperneck 12.5138 -1.74743 8.26554
head 7.35154 -0.690801 4.65505
rclavicle 1.86609e-014 -4.77083e-015
rhumerus -18.9016 21.2796 -79.1449
rradius 37.5663
rwrist -14.2148
rhand -29.9617 -27.983
rfingers 7.12502
rthumb -3.28043 -57.9375
lclavicle 1.86609e-014 -4.77083e-015
lhumerus -51.2242 11.0682 72.8282
lradius 13.2483
lwrist -20.1682
lhand -10.1993 -26.5511
lfingers 7.12502
lthumb 15.7917 2.82475
rfemur 16.8395 3.67626 31.865
rtibia -4.45278e-014
rfoot -3.27132 7.28549
rtoes -10.2226
lfemur -39.2693 -5.28654 -7.35447
ltibia 17.941
lfoot -17.8057 21.4703
ltoes -6.89133
205
root 8.66333 16.7347 4.7154 7.56828 -6.77352 -7.7782
lowerback -4.82403 3.71159 5.8703
upperback -1.16748 4.5802 3.72834
thorax 1.64668 2.29936 0.855888
lowerneck -19.0928 -2.74328 -13.1076
upperneck 12.3852 -1.62269 8.3969
head 7.09068 -0.644466 4.72256
rclavicle -4.8255e-014 -6.55989e-014
rhumerus -19.5186 21.4866 -79.3662
rradius 38.0227
rwrist -14.7827
rhand -30.7022 -27.8162
rfingers 7.12502
rthumb -3.99554 -57.7585
lclavicle -4.8255e-014 -6.55989e-014
lhumerus -53.1126 14.1112 68.4184
lradius 12.1048
lwrist -25.6572
lhand -10.4928 -27.0058
lfingers 7.12502
lthumb 15.5091 2.39216
rfemur 17.6065 3.58453 31.5487
rtibia -4.45278e-014
rfoot -2.63423 7.48075
rtoes -12.245
lfemur -38.9376 -5.69977 -7.67347
ltibia 18.2648
lfoot -17.1165 21.3068
ltoes -7.00272
206
root 8.68468 16.7125 4.93544 7.58679 -6.81475 -7.50771
lowerback -4.95171 3.68468 5.55032
upperback -1.06671 4.54499 3.6625
thorax 1.80215 2.28469 0.974464
lowerneck -19.5516 -2.72538 -13.0576
upperneck 12.244 -1.56061 8.48852
head 7.1141 -0.592473 4.75276
rclavicle -2.18663e-015 2.74323e-014
rhumerus -19.0598 21.2812 -79.1458
rradius 38.593
rwrist -15.1014
rhand -31.4155 -27.7052
rfingers 7.12502
rthumb -4.68439 -57.6334
lclavicle -2.18663e-015 2.74323e-014
lhumerus -54.4926 18.2138 63.1764
lradius 11.1433
lwrist -32.6951
lhand -10.1778 -27.361
lfingers 7.12502
lthumb 15.8125 2.01318
rfemur 18.3041 3.55556 31.0477
rtibia 0
rfoot -1.92445 7.6266
rtoes -13.0273
lfemur -38.6491 -1.92113 -10.5994
ltibia 18.9499
lfoot -14.2138 17.794
ltoes -14.7335
207
root 8.70218 16.6903 5.16713 7.42263 -6.99543 -7.46257
lowerback -5.06261 3.63431 5.37537
upperback -0.97338 4.47159 3.69305
thorax 1.94319 2.25038 1.1084
lowerneck -19.5383 -2.52047 -12.7909
upperneck 12.1522 -1.32979 8.34434
head 7.05221 -0.480608 4.68491
rclavicle 1.24489e-014 6.67916e-014
rhumerus -18.9527 21.0776 -79.1429
rradius 39.3212
rwrist -15.0614
rhand -31.5785 -27.9746
rfingers 7.12502
rthumb -4.8417 -57.8993
lclavicle 1.24489e-014 6.67916e-014
lhumerus -56.24 21.617 58.212
lradius 10.1458
lwrist -38.5881
lhand -9.83127 -27.6203
lfingers 7.12502
lthumb 16.1461 1.72721
rfemur 19.2449 3.65707 30.7554
rtibia -6.36111e-015
rfoot -0.980383 7.73661
rtoes -11.615
lfemur -38.3748 0.606449 -12.3173
ltibia 20.0442
lfoot -11.7548 14.9539
ltoes -15.8631
208
root 8.71419 16.6815 5.40453 7.32911 -7.13357 -7.74075
lowerback -5.32984 3.63712 5.60405
upperback -0.774339 4.42602 3.71107
thorax 2.31341 2.23596 1.02637
lowerneck -19.9558 -2.43758 -12.4875
upperneck 12.3492 -1.23272 8.21873
head 7.17192 -0.426915 4.61045
rclavicle 2.93704e-014 -2.78299e-014
rhumerus -18.5885 21.0188 -79.1809
rradius 39.7711
rwrist -15.401
rhand -31.2187 -26.6393
rfingers 7.12502
rthumb -4.49432 -56.5716
lclavicle 2.93704e-014 -2.78299e-014
lhumerus -55.8905 21.5682 58.527
lradius 9.15946
lwrist -38.2383
lhand -10.4389 -27.0518
lfingers 7.12502
lthumb 15.5609 2.34218
rfemur 20.1146 3.76025 30.8137
rtibia -4.77083e-014
rfoot 0.191959 7.73575
rtoes -11.2648
lfemur -38.3452 1.23993 -12.4024
ltibia 21.1773
lfoot -8.79181 14.2376
ltoes -15.9022
